<?xml version="1.0" standalone="no"?>
<!DOCTYPE svg PUBLIC "-//W3C//DTD SVG 20010904//EN"
 "http://www.w3.org/TR/2001/REC-SVG-20010904/DTD/svg10.dtd">
<svg version="1.0" xmlns="http://www.w3.org/2000/svg"
 width="933.000000pt" height="933.000000pt" viewBox="0 0 933.000000 933.000000"
 preserveAspectRatio="xMidYMid meet">
<metadata>
Created by potrace 1.11, written by Peter Selinger 2001-2013
</metadata>
<g transform="translate(0.000000,933.000000) scale(0.100000,-0.100000)"
fill="#000000" stroke="none">
<path d="M4528 8745 c-2 -1 -35 -6 -74 -9 -39 -4 -82 -9 -95 -11 -13 -3 -51
-10 -84 -16 -137 -24 -286 -74 -433 -145 -467 -226 -770 -643 -887 -1223 -13
-64 -27 -147 -32 -186 -13 -114 -7 -596 12 -900 14 -234 18 -290 29 -390 4
-33 8 -78 11 -100 4 -42 12 -97 21 -155 3 -19 8 -46 10 -60 2 -14 7 -36 10
-50 3 -14 8 -36 10 -50 18 -95 68 -254 114 -355 63 -141 206 -323 321 -408 27
-20 39 -40 52 -84 31 -108 36 -148 33 -263 -2 -90 -8 -130 -27 -184 l-24 -70
-140 -56 c-901 -362 -1625 -897 -1952 -1445 -107 -180 -199 -414 -218 -559 -3
-17 -8 -42 -11 -56 -4 -14 -9 -214 -11 -445 -5 -465 -2 -498 57 -617 79 -159
232 -278 402 -313 48 -10 690 -13 3042 -13 2857 0 2984 1 3052 18 180 46 322
163 393 326 48 108 51 135 50 559 -1 437 -5 487 -50 655 -61 230 -194 479
-372 699 -112 139 -313 331 -515 491 -34 27 -199 146 -237 170 -65 42 -277
171 -325 199 -193 109 -527 267 -760 358 l-75 30 -24 64 c-19 51 -24 88 -27
184 -2 66 1 140 7 165 6 25 12 50 13 55 15 63 31 101 50 119 13 11 54 48 90
80 64 56 146 156 187 228 56 96 119 249 139 338 7 30 16 62 20 70 4 8 10 33
13 55 3 22 10 60 16 85 5 25 12 65 16 90 3 25 10 72 15 105 5 33 11 92 15 130
4 39 8 84 10 100 2 17 7 77 10 135 4 58 8 125 10 150 17 207 25 807 12 905
-35 285 -135 607 -240 779 -67 109 -86 139 -126 191 -214 283 -580 513 -924
581 -10 2 -26 5 -35 8 -17 5 -34 8 -102 20 -94 15 -126 18 -277 21 -89 2 -163
2 -165 0z"/>
</g>
</svg>
